# xmcd
#
# Track frame offsets:
#	150
#	11737
#	25200
#	39327
#	54085
#	66437
#	76887
#	89325
#	101710
#	115375
#	130412
#	142972
#	155730
#	169460
#	184047
#	197050
#	210767
#	223922
#	237347
#	251577
#	265645
#
# Disc length: 3720 seconds
#
# Revision: 0
# Processed by: cddbd v1.4PL0 Copyright (c) Steve Scherf et al.
# Submitted via: MusicWizard 6.0.1
#
DISCID=290e8615
DTITLE=Various Artist - The Ultimate Anthology Of Blues and Jazz, Volume 4 [CD 1/2)
DYEAR=1900
DGENRE=Blues
TTITLE0=James Scott - Kansas City Rag
TTITLE1=Ada Brown - Ill-Fated Blues
TTITLE2=Coon-Sanders Original Nighthawk Orchestra - Red Hot Mama
TTITLE3=Jim Jackson - Jim Jackson's Kansas City Blues - Part 1
TTITLE4=Bennie Moten's Kansas City Orchestra - Justrite
TTITLE5=Lottie Beaman - Rollin' Log Blues
TTITLE6=George E. Lee and His Orchestra - Paseo Strut
TTITLE7=Walter Page's Blue Devils - Blue Devil Blues
TTITLE8=Walter Page's Blue Devils - Squabblin'
TTITLE9=Bennie Moten's Kansas City Orchestra - Moten Swing
TTITLE10=Andy Kirk and His Clouds Of Joy - The Lady Who Swings The Band
TTITLE11=Mary-Lou Williams - Clean Pickin'
TTITLE12=Count Basie - One O'Clock Jump
TTITLE13=Count Basie - Good Morning Blues
TTITLE14=Joe Turner - Roll 'em Pete
TTITLE15=Kansas City Six - Countless Blues
TTITLE16=Kansas City Six - I Want A Little Girl
TTITLE17=Count Basie - Sent For You Yesterday
TTITLE18=Count Basie - Jumpin' At The Woodside
TTITLE19=Andy Kirk and His Clouds Of Joy - Floyd's Guitar Blues
TTITLE20=Euday L. Bowman - 12th Street Rag
EXTD=
EXTT0=
EXTT1=
EXTT2=
EXTT3=
EXTT4=
EXTT5=
EXTT6=
EXTT7=
EXTT8=
EXTT9=
EXTT10=
EXTT11=
EXTT12=
EXTT13=
EXTT14=
EXTT15=
EXTT16=
EXTT17=
EXTT18=
EXTT19=
EXTT20=
PLAYORDER=
